<?xml version="1.0" encoding="UTF-8"?>
<svg id="uuid-f0e056d8-5a67-4e9e-a505-ecd0d42de507" data-name="图层 2" xmlns="http://www.w3.org/2000/svg" viewBox="0 0 100.01 100.01">
  <g id="uuid-2c39771d-40a5-4b24-8c14-297d43b9d661" data-name="编辑图层">
    <g id="uuid-688b7d05-8abe-42eb-b382-6cce18e92c8e" data-name="全彩标志">
      <path d="M50,0C22.39,0,0,22.39,0,50s22.39,50,50,50,50-22.39,50-50S77.62,0,50,0ZM79.57,45.76c-2.22,3.64-5.9,6.43-10.32,7.71-.11.03-.22.07-.33.1-.68.19-1.38.31-2.07.31-3.06,0-4.79-2.07-3.86-4.62.68-1.86,2.46-3.44,4.63-4.17,3.37-1.23,5.72-4.03,5.72-7.29,0-4.39-4.28-7.96-9.55-7.96s-9.55,3.56-9.55,7.96v24.4c0,5.87-3.4,11.02-8.49,13.93-2.77,1.59-6.04,2.52-9.55,2.52-9.95,0-18.04-7.38-18.04-16.45,0-2.89.83-5.6,2.26-7.96,2.23-3.65,5.93-6.45,10.38-7.73,0,0,0,0,.01,0,.75-.23,1.53-.36,2.29-.36,3.07,0,4.81,2.08,3.88,4.64-.63,1.74-2.33,3.23-4.32,4.02-.24.08-.47.17-.69.26-3.15,1.3-5.32,4-5.32,7.13,0,4.39,4.28,7.96,9.55,7.96s9.55-3.56,9.55-7.96v-24.4c0-5.87,3.4-11.02,8.49-13.93,2.77-1.59,6.04-2.52,9.55-2.52,9.95,0,18.04,7.38,18.04,16.45,0,2.89-.83,5.6-2.26,7.96Z" style="fill: #07c160; fill-rule: evenodd;"/>
    </g>
  </g>
</svg>